<svg width="93" height="16" viewBox="0 0 93 16" fill="none" xmlns="http://www.w3.org/2000/svg">
<path fill-rule="evenodd" clip-rule="evenodd" d="M4.79611 0.99533C4.72365 1.02365 4.67101 1.07076 4.639 1.13594C4.59958 1.21621 4.59886 1.32963 4.63725 1.41212C4.65153 1.44282 4.93793 1.94588 5.27369 2.53003C5.60945 3.11417 5.88672 3.59876 5.88983 3.60688C5.89435 3.61865 5.84397 3.63439 5.64245 3.68419C2.95981 4.34718 1.14429 5.32757 0.600865 6.40667C0.341472 6.92175 0.374847 7.46005 0.698532 7.98194C0.881148 8.27637 1.25126 8.64395 1.63921 8.91616C2.3197 9.39366 3.27291 9.83173 4.40754 10.1884C5.97754 10.682 7.95306 11.0521 9.92935 11.2228C10.1024 11.2377 10.2531 11.2535 10.2643 11.2579C10.2774 11.2629 10.6886 11.9559 11.4155 13.1981C12.0375 14.2608 12.5657 15.1578 12.5892 15.1914C12.6474 15.2744 12.7144 15.3339 12.7897 15.3696C12.9437 15.4424 13.0743 15.3774 13.1334 15.1984L13.1559 15.1304L13.1642 11.3646C13.1742 6.82495 13.1724 6.19864 13.1487 6.09174C13.0883 5.81864 12.9721 5.63552 12.7568 5.47422C12.7143 5.44244 11.8383 4.92542 10.81 4.32527C9.29896 3.44344 8.9446 3.23274 8.96282 3.22696C8.99019 3.21829 9.45991 3.15739 9.76694 3.12271C10.5228 3.03732 11.2146 2.98519 12.1371 2.94408C12.5219 2.92693 13.9074 2.92045 14.3549 2.93371C15.0938 2.95559 15.624 2.98518 16.2836 3.04133C16.8514 3.08966 17.6823 3.18434 17.6769 3.20012C17.6754 3.20475 16.8249 3.70431 15.787 4.31024C14.7491 4.91617 13.8698 5.43331 13.8331 5.45943C13.7963 5.48555 13.7295 5.54367 13.6846 5.58856C13.5482 5.72487 13.4691 5.8751 13.4251 6.08129L13.4023 6.18787L13.405 10.6033C13.4064 13.0318 13.4116 15.051 13.4164 15.0906C13.4468 15.3387 13.5796 15.448 13.7662 15.3785C13.8155 15.3602 13.8426 15.3401 13.9083 15.2732C13.9886 15.1915 14.0019 15.1694 15.1263 13.2483C15.7516 12.1801 16.2678 11.2998 16.2733 11.2922C16.2807 11.2821 16.3656 11.2715 16.588 11.253C20.6881 10.9115 24.0023 9.94919 25.5508 8.65063C25.6733 8.54793 25.9003 8.31935 25.9856 8.21287C26.2042 7.94003 26.3386 7.66951 26.3992 7.38054C26.4284 7.24099 26.4311 6.99588 26.405 6.85272C26.352 6.56268 26.1907 6.23959 25.9641 5.96964C25.8525 5.83668 25.6167 5.60884 25.4645 5.48701C24.6753 4.85496 23.4756 4.30854 21.8865 3.8572C21.6292 3.78411 21.0649 3.64038 20.8131 3.58375C20.7587 3.57151 20.7141 3.55758 20.7141 3.5528C20.7141 3.54802 20.9866 3.07012 21.3196 2.49081C21.6881 1.8499 21.9328 1.41365 21.9448 1.37659C21.9944 1.22241 21.9362 1.07637 21.7963 1.00373C21.7332 0.970959 21.5905 0.966453 21.4989 0.994336C21.4463 1.01035 21.0061 1.26277 19.6575 2.05025L17.8852 3.0851L17.7238 3.06596C17.2735 3.01254 16.5851 2.95002 16.0602 2.91489C13.9822 2.77582 11.9067 2.80139 9.86845 2.99117C9.60735 3.01548 8.9478 3.0877 8.80782 3.10731C8.74563 3.11602 8.73905 3.11492 8.69109 3.08776C8.66313 3.07194 7.85308 2.59928 6.89097 2.03743C5.86613 1.43893 5.11696 1.00754 5.08198 0.995757C5.00267 0.969041 4.86388 0.968828 4.79611 0.99533ZM20.8471 3.83864C22.786 4.39931 24.0564 5.17439 24.3941 6.00275C24.5721 6.43923 24.4991 6.86836 24.1719 7.30949C24.0785 7.43539 23.8367 7.67556 23.6831 7.795C22.6595 8.59095 20.8601 9.2221 18.4861 9.61788C17.9447 9.70815 17.1146 9.81522 16.588 9.86273C16.5545 9.86575 16.51 9.87072 16.489 9.87378L16.4509 9.87933L16.456 7.34945L19.4809 5.68971L20.0334 4.72836C20.3373 4.19961 20.5889 3.767 20.5926 3.767C20.5963 3.767 20.7108 3.79924 20.8471 3.83864ZM6.55878 4.76643L7.08908 5.68907L10.1121 7.34792L10.1207 8.59312C10.1254 9.27799 10.1266 9.84095 10.1234 9.84416C10.1114 9.85625 9.34548 9.76617 8.85341 9.69479C6.71556 9.38466 4.94569 8.8654 3.78329 8.20728C3.6056 8.10667 3.30069 7.90302 3.15905 7.79033C3.00422 7.66717 2.77695 7.43756 2.67966 7.30604C2.476 7.0307 2.38562 6.79789 2.37512 6.52158C2.36857 6.34906 2.38145 6.24832 2.42878 6.10151C2.53207 5.7812 2.78261 5.45617 3.15905 5.15413C3.29645 5.04388 3.59973 4.84097 3.78329 4.73646C4.11081 4.54999 4.58297 4.33399 5.02164 4.16996C5.34418 4.04935 5.99343 3.83597 6.01989 3.84186C6.02461 3.84292 6.26711 4.25897 6.55878 4.76643Z" fill="#1D1D1F"/>
<path fill-rule="evenodd" clip-rule="evenodd" d="M45.9954 3.87108C43.9367 3.96058 42.3328 4.85346 41.5571 6.34188C41.3422 6.7541 41.2108 7.14073 41.1172 7.63576C41.061 7.93332 41.0496 8.69878 41.0967 9.02327C41.1745 9.56025 41.3098 9.9903 41.5443 10.4458C41.8027 10.9477 42.1643 11.3982 42.6007 11.7617C43.2817 12.3289 44.2667 12.7394 45.2887 12.882C46.9833 13.1183 48.5426 12.8089 49.6056 12.0255C49.8446 11.8493 50.2272 11.4684 50.3958 11.2386C50.7444 10.7637 50.9772 10.2094 51.0884 9.58982L51.1314 9.34974H50.5164C50.1781 9.34974 49.9014 9.35597 49.9014 9.36357C49.9014 9.37117 49.8802 9.48119 49.8544 9.60805C49.5954 10.8788 48.5904 11.7839 47.1613 12.0333C46.7727 12.1012 46.0544 12.1079 45.6223 12.0478C44.3335 11.8684 43.3777 11.2947 42.8103 10.3599C42.0881 9.17023 42.1086 7.52879 42.8599 6.37651C43.514 5.37349 44.5946 4.81694 46.0525 4.73222C46.9023 4.68286 47.6868 4.8245 48.32 5.14164C48.6775 5.32064 48.8431 5.43825 49.1163 5.70705C49.3946 5.98089 49.5789 6.27479 49.7043 6.64468L49.7557 6.79625L50.3649 6.80248C50.8444 6.80736 50.974 6.80241 50.9736 6.77916C50.9723 6.70445 50.8791 6.3374 50.8251 6.19426C50.3838 5.02491 49.1027 4.18284 47.3793 3.92936C47.2427 3.90926 47.0171 3.88733 46.878 3.88062C46.7388 3.87392 46.5673 3.86539 46.4967 3.86164C46.4262 3.85791 46.2006 3.86215 45.9954 3.87108ZM65.5837 3.87306C62.9273 3.98448 61.0535 5.47619 60.7098 7.75315C60.6583 8.09385 60.6581 8.71783 60.7093 9.05825C60.8613 10.069 61.2663 10.8618 61.9838 11.5534C62.4753 12.0271 63.0572 12.3735 63.7712 12.6173C64.8981 13.0021 66.3642 13.0665 67.6242 12.7865C68.686 12.5506 69.6355 12.0157 70.2623 11.3006C71.8262 9.51608 71.6501 6.66942 69.8808 5.13427C68.8236 4.21702 67.3932 3.79718 65.5837 3.87306ZM34.9355 4.24823C34.6973 4.6927 30.5007 12.7009 30.4863 12.7385C30.4724 12.7746 30.5226 12.7777 31.1327 12.7777H31.7941L33.1227 10.1193L38.1134 10.1205L39.4605 12.7777H40.7857L40.2606 11.7458C39.9719 11.1783 38.9706 9.21332 38.0355 7.37924L36.3353 4.04456L35.0513 4.03217L34.9355 4.24823ZM51.3705 4.89571H55.2649V12.7777H56.4775V4.89571H60.3718V4.03289H51.3705V4.89571ZM72.8244 12.7777H74.037V8.69679H79.3772V7.83397H74.037V4.89571H80.0535V4.03289H72.8244V12.7777ZM81.2894 12.7777H82.502V4.03289H81.2894V12.7777ZM83.4581 4.89571H87.3525V12.7777H88.5884V4.89571H92.4595V4.03289H83.4581V4.89571ZM66.3428 4.73222C67.5166 4.80041 68.3943 5.15279 69.0716 5.8278C69.5761 6.33061 69.8678 6.8775 70.0298 7.6241C70.0764 7.83911 70.0829 7.93434 70.0829 8.4053C70.0829 8.87591 70.0764 8.97166 70.0299 9.1865C69.7617 10.4247 69.0337 11.3001 67.8846 11.7663C67.623 11.8724 67.1474 11.9945 66.7952 12.0459C66.4608 12.0947 65.5979 12.1017 65.2923 12.0581C64.3717 11.9268 63.708 11.6599 63.1326 11.1899C61.9146 10.1947 61.5324 8.28421 62.2482 6.76912C62.726 5.75768 63.6662 5.06266 64.8725 4.82928C65.2329 4.75953 65.2986 4.75104 65.6187 4.73288C65.779 4.72378 65.9207 4.71487 65.9335 4.71307C65.9464 4.71128 66.1305 4.71991 66.3428 4.73222ZM36.6544 7.19049C37.2068 8.31743 37.6586 9.24329 37.6586 9.24797C37.6586 9.25264 36.7352 9.25646 35.6065 9.25646C34.4779 9.25646 33.5544 9.25022 33.5544 9.24257C33.5544 9.21908 35.6349 5.12616 35.6428 5.13409C35.6469 5.13817 36.1021 6.06356 36.6544 7.19049Z" fill="#1D1D1F"/>
</svg>
